<svg width="266" height="240" viewBox="0 0 266 240" fill="none" xmlns="http://www.w3.org/2000/svg">
<g clip-path="url(#clip0_123_30270)">
<path d="M168 76.258C162.242 72.3222 156.324 68.5911 150.199 65.1919C144.068 61.7795 137.735 58.7388 131.233 56.0862C124.308 53.2623 117.182 50.947 109.913 49.1587C100.173 46.7083 90.131 45.616 80.0717 45.9125C75.0044 46.0799 69.9586 46.6945 64.9933 47.7489C62.4237 48.2719 59.9019 49.0124 57.4553 49.9624C54.8429 50.9675 52.4117 52.3953 50.2599 54.1883C49.0824 55.1807 48.0593 56.3426 47.2248 57.6354C46.2849 59.0794 45.701 60.7234 45.5214 62.4316C45.3514 64.2082 45.6624 65.9942 46.4217 67.603C47.1248 69.0859 48.1217 70.4096 49.3527 71.4947C50.4848 72.5032 51.7557 73.3453 53.1273 73.9957C54.4076 74.593 55.7418 75.0693 57.1126 75.4183C59.6435 76.0883 62.227 76.5476 64.8369 76.7915C69.995 77.2777 75.2003 77.0674 80.3122 76.1663C85.4446 75.2632 90.425 73.6264 95.0995 71.3067C100.928 68.4349 106.115 64.4069 110.341 59.4706C110.906 58.7895 111.428 58.0741 111.904 57.3286C112.396 56.5583 112.823 55.7489 113.182 54.909C113.945 53.2119 114.407 51.3973 114.548 49.5464C114.683 47.667 114.461 45.7817 113.895 43.9895C113.351 42.2819 112.557 40.6657 111.539 39.1933C109.614 36.4771 107.248 34.1031 104.536 32.1684C103.254 31.216 101.921 30.3321 100.544 29.5203C99.8608 29.1172 99.1727 28.7244 98.4737 28.3549C97.7753 27.9787 97.1017 27.6556 96.4142 27.304C90.9473 24.5408 85.3019 22.1401 79.5146 20.1175C56.3032 12.1094 31.414 10.0272 7.10458 14.0597C6.19176 14.1931 5.28566 14.3758 4.37735 14.5487C3.47048 14.7285 2.5592 14.8868 1.65616 15.0897C-0.148805 15.5007 -1.95842 15.8884 -3.74181 16.3777C-7.32494 17.2844 -10.8395 18.4009 -14.2823 19.5773C-17.0261 20.525 -19.71 21.6403 -22.3187 22.9169C-23.3686 23.4481 -24.2934 23.9351 -25.0982 24.3968C-25.8953 24.8775 -26.5779 25.3184 -27.1586 25.7224C-28.8491 26.8987 -28.6637 27.2617 -26.9433 26.8952C-26.513 26.8033 -25.9867 26.6658 -25.3695 26.4834C-24.7553 26.2954 -24.0447 26.0779 -23.2378 25.831C-22.4339 25.5826 -21.5445 25.2926 -20.5695 24.9611C-19.5886 24.6493 -18.5185 24.3142 -17.3729 23.9312C-11.3164 21.962 -5.15885 20.3248 1.07219 19.0271C15.309 16.0589 29.9088 15.3419 44.3358 16.9023C58.7096 18.4054 72.7284 22.2206 85.8493 28.2003C86.7445 28.6206 87.6437 29.0428 88.547 29.4669C89.4362 29.917 90.328 30.3682 91.2222 30.8207C92.1225 31.2591 92.9898 31.7645 93.8746 32.2344C94.7581 32.7134 95.6461 33.1827 96.4632 33.6729C99.6866 35.5098 102.621 37.8076 105.175 40.4938C107.04 42.5266 108.367 44.866 108.696 47.2513C108.851 48.454 108.769 49.6771 108.454 50.8517C108.288 51.4645 108.071 52.0624 107.804 52.6392C107.549 53.227 107.24 53.7898 106.879 54.3203C106.504 54.8793 106.094 55.414 105.65 55.9213L104.158 57.5382C103.63 58.054 103.108 58.576 102.572 59.0845C102.013 59.5684 101.473 60.0734 100.9 60.5422C98.6016 62.4291 96.1157 64.0749 93.4818 65.4532C88.1709 68.2191 82.4012 69.986 76.4628 70.6651C73.4882 71.0044 70.4924 71.0995 67.5058 70.9495C64.5551 70.8154 61.6275 70.3867 58.7667 69.6697L57.9871 69.4554L57.5977 69.3471L57.2486 69.2346C56.7894 69.0874 56.3391 68.9147 55.8995 68.7173C55.0549 68.3415 54.2639 67.8568 53.5465 67.2754C52.8975 66.7541 52.3511 66.1171 51.9348 65.3963C51.7497 65.0773 51.607 64.7353 51.5102 64.3789C51.411 64.0459 51.3613 63.6998 51.3625 63.3517C51.3541 62.9999 51.3968 62.6483 51.4893 62.308C51.5821 61.9379 51.7178 61.5796 51.8935 61.2403C52.3095 60.465 52.8445 59.759 53.4789 59.1481C54.1912 58.4585 54.9716 57.8427 55.8079 57.3103C56.6822 56.7482 57.5964 56.251 58.543 55.8226C60.539 54.9422 62.6104 54.2459 64.7311 53.7426C65.8159 53.4722 66.9197 53.2314 68.041 53.0101C69.1533 52.7941 70.2696 52.5992 71.3898 52.4255C75.8938 51.7565 80.4402 51.4346 84.9887 51.4626C93.1538 51.5249 101.277 52.5315 109.197 54.4623C117.165 56.406 124.938 59.0576 132.423 62.3853C136.179 64.0414 139.876 65.8318 143.514 67.7564C145.327 68.7237 147.133 69.7068 148.907 70.7512L151.575 72.3058L154.212 73.9159C155.979 74.9746 157.692 76.1238 159.433 77.2277C161.142 78.3839 162.875 79.503 164.56 80.6974C167.964 83.0336 171.288 85.4923 174.597 87.9748C185.118 95.9504 194.905 103.722 204.223 109.965C208.504 112.838 209.201 111.525 204.971 107.331C198.914 101.47 192.391 95.4834 185.629 89.79C180.078 85.0994 174.055 80.6447 167.995 76.3792C167.998 76.3389 168.001 76.3017 168 76.258Z" fill="white"/>
<path d="M161.595 99.5108C165.924 99.9767 170.207 100.777 174.408 101.905C175.515 102.235 176.63 102.555 177.738 102.903C178.835 103.289 179.928 103.69 181.005 104.12C185.634 106.066 190.148 108.388 194.656 110.801L201.419 114.472C203.676 115.7 205.933 116.959 208.229 118.134L208.263 118.152C209.053 118.556 209.974 118.63 210.823 118.356C211.672 118.082 212.38 117.484 212.791 116.692C213.047 116.191 213.175 115.635 213.164 115.075C213.153 114.514 213.002 113.966 212.725 113.48L209.102 107.193C205.234 100.394 201.359 93.5912 197.432 86.8003C193.502 80.0111 189.522 73.2342 185.345 66.5355C184.054 64.5253 182.653 62.5876 181.15 60.7312C179.751 58.946 178.345 58.1201 177.116 57.868C175.319 57.5083 174.928 59.3759 176.347 62.1838C177.297 64.0283 178.356 65.8139 179.52 67.5312C184.71 75.4993 189.379 83.7962 193.497 92.3706C194.647 94.7385 195.759 97.2528 197.174 99.3906C200.842 104.933 203.945 110.844 207.193 116.659L211.21 112.5C209.847 111.77 208.475 111.062 207.08 110.4C201.587 107.764 196.196 104.807 190.547 102.255C185.488 99.9247 180.253 97.9903 174.889 96.4691C169.507 95.0017 164.004 94.0069 158.441 93.496C157.339 93.3992 156.249 93.3304 155.178 93.2967C154.106 93.2974 153.052 93.3376 152.018 93.4173C150.016 93.5598 148.038 93.9471 146.127 94.5705C145.276 94.8523 144.87 95.3174 144.915 95.7952C144.96 96.2609 145.452 96.7869 146.401 97.0556C147.748 97.3593 149.13 97.5861 150.514 97.8389C151.895 98.1011 153.29 98.3223 154.68 98.5208C155.813 98.7225 156.968 98.8556 158.129 98.9693L159.001 99.0532L159.866 99.1679C160.441 99.2479 161.016 99.3276 161.591 99.4071L161.595 99.5108Z" fill="white"/>
</g>
<defs>
<clipPath id="clip0_123_30270">
<rect width="244.749" height="242.923" fill="white" transform="matrix(-0.786039 0.618177 0.618177 0.786039 115.382 -103)"/>
</clipPath>
</defs>
</svg>
