<svg width="148" height="160" viewBox="0 0 148 160" fill="none" xmlns="http://www.w3.org/2000/svg">
<g clip-path="url(#clip0_123_30261)">
<path d="M0.62793 28.1039L27.0159 2.74185L52.378 29.1298L25.99 54.4919L0.62793 28.1039Z" fill="#34E3BC"/>
<path d="M52.378 29.1298L78.766 3.7678L104.128 30.1558L77.74 55.5178L52.378 29.1298Z" fill="#34E3BC"/>
<path d="M51.352 80.8799L77.74 55.5178L103.102 81.9058L76.7141 107.268L51.352 80.8799Z" fill="#34E3BC"/>
<path d="M103.102 81.9058L129.49 56.5438L154.852 82.9318L128.464 108.294L103.102 81.9058Z" fill="#34E3BC"/>
<path d="M105.154 -21.5943L131.542 -46.9563L156.904 -20.5683L130.516 4.79374L105.154 -21.5943Z" fill="#34E3BC"/>
<path d="M104.128 30.1558L130.516 4.79374L155.878 31.1817L129.49 56.5438L104.128 30.1558Z" fill="#34E3BC"/>
<path d="M102.076 133.656L128.464 108.294L153.826 134.682L127.438 160.044L102.076 133.656Z" fill="#34E3BC"/>
<path d="M156.904 -20.5683L183.292 -45.9304L208.654 -19.5424L182.266 5.81969L156.904 -20.5683Z" fill="#34E3BC"/>
<path d="M53.4039 -22.6202L79.7919 -47.9822L105.154 -21.5943L78.766 3.7678L53.4039 -22.6202Z" fill="#34E3BC"/>
<path d="M155.878 31.1817L182.266 5.81969L207.628 32.2077L181.24 57.5697L155.878 31.1817Z" fill="#34E3BC"/>
<path d="M154.852 82.9318L181.24 57.5697L206.602 83.9577L180.214 109.32L154.852 82.9318Z" fill="#34E3BC"/>
<path d="M106.18 -73.3443L132.568 -98.7063L157.93 -72.3184L131.542 -46.9563L106.18 -73.3443Z" fill="#34E3BC"/>
<path d="M207.628 32.2077L234.016 6.84563L259.378 33.2336L232.99 58.5957L207.628 32.2077Z" fill="#34E3BC"/>
</g>
<defs>
<clipPath id="clip0_123_30261">
<rect width="182.518" height="182.518" fill="white" transform="translate(0.62793 28.1039) rotate(-43.8643)"/>
</clipPath>
</defs>
</svg>
