<svg width="110" height="110" viewBox="0 0 110 110" fill="none" xmlns="http://www.w3.org/2000/svg">
<path d="M37.974 25.7735C22.0391 34.9735 16.5731 55.3728 25.7731 71.3077C34.9731 87.2426 55.3724 92.7085 71.3073 83.5085C87.2422 74.3085 92.7081 53.9092 83.5081 37.9743C74.3081 22.0395 53.9088 16.5735 37.974 25.7735ZM47.0736 64.6679C48.3941 65.0217 49.1941 66.4073 48.8403 67.7278C48.6573 68.4108 48.2254 68.9296 47.677 69.2463C47.1285 69.5629 46.4633 69.6775 45.7803 69.4945L36.6735 67.0543C35.353 66.7005 34.553 65.3149 34.9068 63.9944L37.347 54.8875C37.7008 53.567 39.0864 52.767 40.4069 53.1209C41.7274 53.4747 42.5274 54.8603 42.1736 56.1808L40.3801 62.8744L47.0736 64.6679ZM56.1192 45.9354L58.1291 62.7498C58.2493 63.7581 57.7244 64.7155 56.8872 65.1989C56.5985 65.3655 56.2765 65.4745 55.9501 65.509C54.5864 65.6805 53.3335 64.7103 53.1742 63.3011L51.1644 46.4867C50.9929 45.123 51.9631 43.8701 53.3434 43.7275C54.7237 43.5849 55.9478 44.5717 56.1192 45.9354ZM74.3744 45.2877L71.9343 54.3945C71.7513 55.0775 71.3194 55.5962 70.771 55.9129C70.2225 56.2296 69.5573 56.3442 68.8743 56.1612C67.5538 55.8073 66.7538 54.4217 67.1077 53.1012L68.9012 46.4077L62.2077 44.6142C60.8872 44.2603 60.0872 42.8747 60.441 41.5542C60.7948 40.2337 62.1805 39.4337 63.5009 39.7875L72.6078 42.2277C73.9283 42.5815 74.7283 43.9672 74.3744 45.2877Z" fill="#34E3BC"/>
</svg>
